<?xml version="1.0" standalone="no"?>
<!DOCTYPE svg PUBLIC "-//W3C//DTD SVG 20010904//EN"
 "http://www.w3.org/TR/2001/REC-SVG-20010904/DTD/svg10.dtd">
<svg version="1.0" xmlns="http://www.w3.org/2000/svg"
 width="512.000000pt" height="512.000000pt" viewBox="0 0 512.000000 512.000000"
 preserveAspectRatio="xMidYMid meet">
<metadata>
Created by potrace 1.14, written by Peter Selinger 2001-2017
</metadata>
<g transform="translate(0.000000,512.000000) scale(0.100000,-0.100000)"
fill="#000000" stroke="none">
<path d="M1635 4920 c-93 -39 -181 -75 -195 -82 -14 -6 -29 -12 -35 -14 -36
-9 -453 -190 -505 -219 -111 -63 -229 -167 -318 -282 -45 -57 -113 -189 -161
-311 -23 -56 -45 -110 -50 -120 -5 -9 -47 -107 -92 -217 -44 -110 -90 -219
-100 -242 -11 -23 -19 -48 -19 -55 0 -8 -5 -19 -12 -26 -7 -7 -12 -36 -12 -66
0 -43 5 -61 28 -91 32 -41 78 -65 128 -65 22 0 123 46 313 141 597 302 640
327 768 453 128 126 182 208 329 501 36 72 116 228 177 348 122 241 129 267
89 338 -24 43 -85 79 -134 79 -16 -1 -105 -32 -199 -70z"/>
<path d="M3245 4976 c-65 -29 -102 -90 -97 -160 2 -28 357 -736 433 -864 74
-125 215 -271 347 -359 48 -32 211 -121 362 -197 151 -77 330 -168 398 -203
133 -68 168 -75 229 -46 19 9 46 33 60 55 44 66 38 96 -66 348 -52 124 -104
251 -117 283 -39 93 -75 179 -95 224 -11 23 -19 46 -19 52 0 17 -98 181 -142
238 -83 108 -222 221 -346 283 -125 62 -861 360 -888 360 -16 -1 -42 -7 -59
-14z"/>
<path d="M236 1964 c-66 -24 -112 -96 -101 -160 4 -30 32 -107 65 -179 5 -11
25 -58 44 -105 19 -47 57 -140 85 -207 28 -66 51 -124 51 -127 0 -3 11 -29 24
-58 13 -29 39 -89 57 -133 70 -165 205 -334 350 -437 82 -59 162 -99 379 -188
96 -40 189 -78 205 -85 119 -53 406 -165 432 -169 40 -5 109 28 136 66 11 14
22 49 25 76 4 48 -1 61 -203 458 -115 225 -230 443 -258 484 -62 93 -219 250
-312 311 -110 73 -863 455 -910 463 -16 2 -47 -2 -69 -10z"/>
<path d="M4819 1969 c-20 -4 -124 -53 -230 -107 -107 -55 -282 -144 -389 -199
-232 -119 -269 -141 -369 -223 -154 -127 -216 -216 -383 -540 -275 -535 -299
-586 -300 -627 -1 -96 93 -175 184 -153 30 6 339 130 413 165 17 8 55 24 85
35 30 12 74 30 98 41 24 11 76 33 116 48 183 73 300 147 411 258 77 77 168
203 203 283 11 25 32 72 47 105 15 33 28 67 30 75 2 8 63 157 136 330 147 349
154 378 109 443 -40 58 -96 81 -161 66z"/>
</g>
</svg>
